# xmcd
#
# Track frame offsets: 
#        150
#        21546
#        46574
#        64749
#        80500
#        100835
#        116924
#        141588
#        158926
#        186186
#
# Disc length: 2727 seconds
#
# Revision: 0
# Processed by: cddbd v1.5.2PL0 Copyright (c) Steve Scherf et al.
# Submitted via: ExactAudioCopy v1.0b3
#
DISCID=8b0aa50a
DTITLE=Various Artist - Chon Xua Em Ve
DYEAR=1993
DGENRE=
TTITLE0=Hai Ly - Huyen thoai Me
TTITLE1=Duy Quang - Chieu Tay Do
TTITLE2=Nhu Mai - Bong hong Viet Nam
TTITLE3=Ngoc Lan - Moi em ve
TTITLE4=Tuan Vu - Biet dau nguon coi
TTITLE5=Hai Ly - Ngau nhien
TTITLE6=Thai Chau - Bong hong cai ao
TTITLE7=Nhu Mai - Ve duoi mai nha
TTITLE8=Duy Khanh - Vet thu tren lung ngua hoang
TTITLE9=Huong Lan, Duy Quang - Hoa van no tren duong que huong
EXTD=
EXTT0=
EXTT1=
EXTT2=
EXTT3=
EXTT4=
EXTT5=
EXTT6=
EXTT7=
EXTT8=
EXTT9=
PLAYORDER=
